<mxfile host="app.diagrams.net" modified="2021-09-01T05:50:06.396Z" agent="5.0 (Windows NT 10.0; Win64; x64) AppleWebKit/537.36 (KHTML, like Gecko) Chrome/92.0.4515.159 Safari/537.36" etag="Xfj800cGdhiTJDbJANMD" version="15.0.4" type="github">
  <diagram name="Page-1" id="c7558073-3199-34d8-9f00-42111426c3f3">
    <mxGraphModel dx="1822" dy="754" grid="1" gridSize="10" guides="1" tooltips="1" connect="1" arrows="1" fold="1" page="0" pageScale="1" pageWidth="1169" pageHeight="827" background="none" math="0" shadow="0">
      <root>
        <mxCell id="0" />
        <mxCell id="1" parent="0" />
        <mxCell id="2" value="&lt;p style=&quot;margin: 0px ; margin-top: 4px ; text-align: center ; text-decoration: underline&quot;&gt;&lt;strong&gt;Console&lt;br&gt;&lt;/strong&gt;&lt;/p&gt;&lt;hr&gt;&lt;p style=&quot;margin: 0px ; margin-left: 8px&quot;&gt;&lt;u&gt;Uploaded [DOC_FILE]&lt;/u&gt;&lt;/p&gt;" style="verticalAlign=middle;align=center;overflow=fill;fontSize=12;fontFamily=Varela Round;html=1;rounded=1;fontStyle=1;strokeWidth=3;fillColor=#E6FFCC;fontSource=https%3A%2F%2Ffonts.googleapis.com%2Fcss%3Ffamily%3DVarela%2BRound;" parent="1" vertex="1">
          <mxGeometry x="-16" y="247" width="174" height="90" as="geometry" />
        </mxCell>
        <mxCell id="3" value="Client" style="whiteSpace=wrap;align=center;verticalAlign=middle;fontStyle=1;strokeWidth=3;fillColor=#FFFFCC;fontFamily=Varela Round;fontSource=https%3A%2F%2Ffonts.googleapis.com%2Fcss%3Ffamily%3DVarela%2BRound;" parent="1" vertex="1">
          <mxGeometry x="26" y="81" width="90" height="60" as="geometry" />
        </mxCell>
        <mxCell id="4" value="Browser" style="whiteSpace=wrap;align=center;verticalAlign=middle;fontStyle=1;strokeWidth=3;fillColor=#FFFFCC;fontFamily=Varela Round;fontSource=https%3A%2F%2Ffonts.googleapis.com%2Fcss%3Ffamily%3DVarela%2BRound;" parent="1" vertex="1">
          <mxGeometry x="-180" y="262" width="90" height="60" as="geometry" />
        </mxCell>
        <mxCell id="36" value="" style="edgeStyle=none;noEdgeStyle=1;strokeColor=#990000;strokeWidth=2;fontFamily=Varela Round;fontSource=https%3A%2F%2Ffonts.googleapis.com%2Fcss%3Ffamily%3DVarela%2BRound;" parent="1" source="3" target="2" edge="1">
          <mxGeometry width="100" height="100" relative="1" as="geometry">
            <mxPoint x="-200" y="261" as="sourcePoint" />
            <mxPoint x="-100" y="161" as="targetPoint" />
          </mxGeometry>
        </mxCell>
        <mxCell id="37" value="" style="edgeStyle=none;noEdgeStyle=1;strokeColor=#990000;strokeWidth=2;fontFamily=Varela Round;fontSource=https%3A%2F%2Ffonts.googleapis.com%2Fcss%3Ffamily%3DVarela%2BRound;" parent="1" source="4" target="2" edge="1">
          <mxGeometry width="100" height="100" relative="1" as="geometry">
            <mxPoint x="60" y="201" as="sourcePoint" />
            <mxPoint x="160" y="101" as="targetPoint" />
          </mxGeometry>
        </mxCell>
        <mxCell id="52" value="Web UI" style="text;spacingTop=-5;align=center;fontFamily=Varela Round;fontSource=https%3A%2F%2Ffonts.googleapis.com%2Fcss%3Ffamily%3DVarela%2BRound;" parent="1" vertex="1">
          <mxGeometry x="-70" y="262" width="30" height="20" as="geometry" />
        </mxCell>
        <mxCell id="53" value="API" style="text;spacingTop=-5;align=center;fontFamily=Varela Round;fontSource=https%3A%2F%2Ffonts.googleapis.com%2Fcss%3Ffamily%3DVarela%2BRound;" parent="1" vertex="1">
          <mxGeometry x="36" y="179" width="30" height="20" as="geometry" />
        </mxCell>
        <mxCell id="54" value="Documentation&#xa;from similar projects" style="text;spacingTop=-5;align=center;fontFamily=Varela Round;fontSource=https%3A%2F%2Ffonts.googleapis.com%2Fcss%3Ffamily%3DVarela%2BRound;" parent="1" vertex="1">
          <mxGeometry x="-34" y="352" width="30" height="20" as="geometry" />
        </mxCell>
        <mxCell id="55" value="" style="edgeStyle=elbowEdgeStyle;elbow=horizontal;strokeColor=#990000;strokeWidth=2;fontFamily=Varela Round;fontSource=https%3A%2F%2Ffonts.googleapis.com%2Fcss%3Ffamily%3DVarela%2BRound;" parent="1" target="2" edge="1">
          <mxGeometry width="100" height="100" relative="1" as="geometry">
            <mxPoint x="40" y="402" as="sourcePoint" />
            <mxPoint x="-70" y="441" as="targetPoint" />
            <Array as="points">
              <mxPoint x="40" y="381" />
            </Array>
          </mxGeometry>
        </mxCell>
        <mxCell id="56" value="" style="edgeStyle=elbowEdgeStyle;elbow=horizontal;strokeColor=#990000;strokeWidth=2;fontFamily=Varela Round;fontSource=https%3A%2F%2Ffonts.googleapis.com%2Fcss%3Ffamily%3DVarela%2BRound;" parent="1" source="2" edge="1">
          <mxGeometry width="100" height="100" relative="1" as="geometry">
            <mxPoint x="-170" y="511" as="sourcePoint" />
            <mxPoint x="60" y="402" as="targetPoint" />
            <Array as="points">
              <mxPoint x="60" y="371" />
            </Array>
          </mxGeometry>
        </mxCell>
        <mxCell id="57" value="Elaborate&#xa;cost/benefit&#xa;ratio" style="text;spacingTop=-5;align=center;fontFamily=Varela Round;fontSource=https%3A%2F%2Ffonts.googleapis.com%2Fcss%3Ffamily%3DVarela%2BRound;" parent="1" vertex="1">
          <mxGeometry x="86" y="352" width="30" height="20" as="geometry" />
        </mxCell>
        <mxCell id="K-xb-uSYliZ07DOGXeEE-102" value="" style="group;fontFamily=Varela Round;fontSource=https%3A%2F%2Ffonts.googleapis.com%2Fcss%3Ffamily%3DVarela%2BRound;" vertex="1" connectable="0" parent="1">
          <mxGeometry x="329.5" y="231" width="86" height="400" as="geometry" />
        </mxCell>
        <mxCell id="K-xb-uSYliZ07DOGXeEE-97" value="KAFKA" style="shape=process;whiteSpace=wrap;align=center;verticalAlign=middle;size=0.0475;fontStyle=1;strokeWidth=3;fillColor=#FFCCCC;rotation=90;fontSize=16;fontFamily=Varela Round;fontSource=https%3A%2F%2Ffonts.googleapis.com%2Fcss%3Ffamily%3DVarela%2BRound;" vertex="1" parent="K-xb-uSYliZ07DOGXeEE-102">
          <mxGeometry x="-157" y="157" width="400" height="86" as="geometry" />
        </mxCell>
        <mxCell id="K-xb-uSYliZ07DOGXeEE-98" value="" style="rounded=1;whiteSpace=wrap;html=1;fontSize=16;fontFamily=Varela Round;fontSource=https%3A%2F%2Ffonts.googleapis.com%2Fcss%3Ffamily%3DVarela%2BRound;" vertex="1" parent="K-xb-uSYliZ07DOGXeEE-102">
          <mxGeometry x="8" y="39" width="70" height="44" as="geometry" />
        </mxCell>
        <mxCell id="K-xb-uSYliZ07DOGXeEE-99" value="" style="rounded=1;whiteSpace=wrap;html=1;fontSize=16;fontFamily=Varela Round;fontSource=https%3A%2F%2Ffonts.googleapis.com%2Fcss%3Ffamily%3DVarela%2BRound;" vertex="1" parent="K-xb-uSYliZ07DOGXeEE-102">
          <mxGeometry x="8" y="110" width="70" height="44" as="geometry" />
        </mxCell>
        <mxCell id="K-xb-uSYliZ07DOGXeEE-100" value="" style="rounded=1;whiteSpace=wrap;html=1;fontSize=16;fontFamily=Varela Round;fontSource=https%3A%2F%2Ffonts.googleapis.com%2Fcss%3Ffamily%3DVarela%2BRound;" vertex="1" parent="K-xb-uSYliZ07DOGXeEE-102">
          <mxGeometry x="8" y="252" width="70" height="44" as="geometry" />
        </mxCell>
        <mxCell id="K-xb-uSYliZ07DOGXeEE-101" value="" style="rounded=1;whiteSpace=wrap;html=1;fontSize=16;fontFamily=Varela Round;fontSource=https%3A%2F%2Ffonts.googleapis.com%2Fcss%3Ffamily%3DVarela%2BRound;" vertex="1" parent="K-xb-uSYliZ07DOGXeEE-102">
          <mxGeometry x="8" y="312" width="70" height="44" as="geometry" />
        </mxCell>
        <mxCell id="93" value="" style="edgeStyle=elbowEdgeStyle;elbow=horizontal;strokeColor=#990000;strokeWidth=2;exitX=1;exitY=0.5;exitDx=0;exitDy=0;fontFamily=Varela Round;fontSource=https%3A%2F%2Ffonts.googleapis.com%2Fcss%3Ffamily%3DVarela%2BRound;" parent="1" source="2" target="K-xb-uSYliZ07DOGXeEE-98" edge="1">
          <mxGeometry width="100" height="100" relative="1" as="geometry">
            <mxPoint x="644.5" y="691" as="sourcePoint" />
            <mxPoint x="834.5" y="622" as="targetPoint" />
          </mxGeometry>
        </mxCell>
        <mxCell id="K-xb-uSYliZ07DOGXeEE-103" value="&lt;p style=&quot;margin: 0px ; margin-top: 4px ; text-align: center ; text-decoration: underline&quot;&gt;&lt;strong&gt;SPS&lt;br&gt;&lt;/strong&gt;&lt;/p&gt;&lt;hr&gt;&lt;p style=&quot;margin: 0px ; margin-left: 8px&quot;&gt;parsing [DOC_FILE]&lt;/p&gt;" style="verticalAlign=middle;align=center;overflow=fill;fontSize=12;fontFamily=Varela Round;html=1;rounded=1;fontStyle=1;strokeWidth=3;fillColor=#E6FFCC;fontSource=https%3A%2F%2Ffonts.googleapis.com%2Fcss%3Ffamily%3DVarela%2BRound;arcSize=4;" vertex="1" parent="1">
          <mxGeometry x="580" y="150" width="310" height="365.5" as="geometry" />
        </mxCell>
        <mxCell id="K-xb-uSYliZ07DOGXeEE-104" value="" style="edgeStyle=elbowEdgeStyle;elbow=horizontal;strokeColor=#990000;strokeWidth=2;fontFamily=Varela Round;fontSource=https%3A%2F%2Ffonts.googleapis.com%2Fcss%3Ffamily%3DVarela%2BRound;" edge="1" parent="1" source="K-xb-uSYliZ07DOGXeEE-98" target="K-xb-uSYliZ07DOGXeEE-106">
          <mxGeometry width="100" height="100" relative="1" as="geometry">
            <mxPoint x="238" y="302" as="sourcePoint" />
            <mxPoint x="357.5" y="302" as="targetPoint" />
          </mxGeometry>
        </mxCell>
        <mxCell id="66" value="" style="edgeStyle=orthogonalEdgeStyle;elbow=vertical;strokeColor=#990000;strokeWidth=2;entryX=1;entryY=0.5;entryDx=0;entryDy=0;fontFamily=Varela Round;fontSource=https%3A%2F%2Ffonts.googleapis.com%2Fcss%3Ffamily%3DVarela%2BRound;" parent="1" source="K-xb-uSYliZ07DOGXeEE-125" target="K-xb-uSYliZ07DOGXeEE-99" edge="1">
          <mxGeometry width="100" height="100" relative="1" as="geometry">
            <mxPoint x="530" y="430" as="sourcePoint" />
            <mxPoint x="1134.5" y="241" as="targetPoint" />
          </mxGeometry>
        </mxCell>
        <mxCell id="K-xb-uSYliZ07DOGXeEE-106" value="S" style="strokeWidth=2;html=1;shape=mxgraph.flowchart.start_2;whiteSpace=wrap;fontSize=12;fontStyle=1;fontFamily=Varela Round;fontSource=https%3A%2F%2Ffonts.googleapis.com%2Fcss%3Ffamily%3DVarela%2BRound;flipV=1;" vertex="1" parent="1">
          <mxGeometry x="650" y="214.5" width="40" height="40" as="geometry" />
        </mxCell>
        <mxCell id="K-xb-uSYliZ07DOGXeEE-108" value="extractParagraph&lt;br&gt;Text" style="rounded=1;whiteSpace=wrap;html=1;absoluteArcSize=1;arcSize=14;strokeWidth=2;fontSize=12;flipV=1;" vertex="1" parent="1">
          <mxGeometry x="750" y="210.5" width="110" height="48" as="geometry" />
        </mxCell>
        <mxCell id="K-xb-uSYliZ07DOGXeEE-109" value="splitSentences" style="rounded=1;whiteSpace=wrap;html=1;absoluteArcSize=1;arcSize=14;strokeWidth=2;fontSize=12;flipV=1;" vertex="1" parent="1">
          <mxGeometry x="750" y="284.5" width="110" height="48" as="geometry" />
        </mxCell>
        <mxCell id="K-xb-uSYliZ07DOGXeEE-110" value="replaceSentence&lt;br&gt;2PlaceHolder" style="rounded=1;whiteSpace=wrap;html=1;absoluteArcSize=1;arcSize=14;strokeWidth=2;fontSize=12;flipV=1;" vertex="1" parent="1">
          <mxGeometry x="615" y="284.5" width="110" height="48" as="geometry" />
        </mxCell>
        <mxCell id="K-xb-uSYliZ07DOGXeEE-111" value="replaceParagraph&lt;br&gt;Text2Concatenated&lt;br&gt;PlaceHolders" style="rounded=1;whiteSpace=wrap;html=1;absoluteArcSize=1;arcSize=14;strokeWidth=2;fontSize=12;flipV=1;" vertex="1" parent="1">
          <mxGeometry x="615" y="359.5" width="110" height="48" as="geometry" />
        </mxCell>
        <mxCell id="K-xb-uSYliZ07DOGXeEE-113" value="" style="edgeStyle=elbowEdgeStyle;elbow=horizontal;strokeWidth=1;fontFamily=Varela Round;fontSource=https%3A%2F%2Ffonts.googleapis.com%2Fcss%3Ffamily%3DVarela%2BRound;exitDx=0;exitDy=0;exitPerimeter=0;entryDx=0;entryDy=0;strokeColor=#0000FF;" edge="1" parent="1" source="K-xb-uSYliZ07DOGXeEE-106" target="K-xb-uSYliZ07DOGXeEE-108">
          <mxGeometry width="100" height="100" relative="1" as="geometry">
            <mxPoint x="910" y="429.5" as="sourcePoint" />
            <mxPoint x="910" y="494.5" as="targetPoint" />
            <Array as="points">
              <mxPoint x="750" y="234.5" />
            </Array>
          </mxGeometry>
        </mxCell>
        <mxCell id="K-xb-uSYliZ07DOGXeEE-114" value="" style="edgeStyle=elbowEdgeStyle;elbow=horizontal;strokeWidth=1;fontFamily=Varela Round;fontSource=https%3A%2F%2Ffonts.googleapis.com%2Fcss%3Ffamily%3DVarela%2BRound;exitDx=0;exitDy=0;strokeColor=#0000FF;" edge="1" parent="1" source="K-xb-uSYliZ07DOGXeEE-108" target="K-xb-uSYliZ07DOGXeEE-109">
          <mxGeometry width="100" height="100" relative="1" as="geometry">
            <mxPoint x="680" y="292.5" as="sourcePoint" />
            <mxPoint x="680" y="319.5" as="targetPoint" />
            <Array as="points">
              <mxPoint x="750" y="315.5" />
            </Array>
          </mxGeometry>
        </mxCell>
        <mxCell id="K-xb-uSYliZ07DOGXeEE-115" value="" style="edgeStyle=orthogonalEdgeStyle;elbow=horizontal;strokeWidth=1;fontFamily=Varela Round;fontSource=https%3A%2F%2Ffonts.googleapis.com%2Fcss%3Ffamily%3DVarela%2BRound;strokeColor=#0000FF;" edge="1" parent="1" source="K-xb-uSYliZ07DOGXeEE-109" target="K-xb-uSYliZ07DOGXeEE-110">
          <mxGeometry width="100" height="100" relative="1" as="geometry">
            <mxPoint x="680" y="373.5" as="sourcePoint" />
            <mxPoint x="680" y="398.5" as="targetPoint" />
            <Array as="points" />
          </mxGeometry>
        </mxCell>
        <mxCell id="K-xb-uSYliZ07DOGXeEE-116" value="" style="edgeStyle=elbowEdgeStyle;elbow=horizontal;strokeWidth=1;fontFamily=Varela Round;fontSource=https%3A%2F%2Ffonts.googleapis.com%2Fcss%3Ffamily%3DVarela%2BRound;strokeColor=#0000FF;" edge="1" parent="1" source="K-xb-uSYliZ07DOGXeEE-110" target="K-xb-uSYliZ07DOGXeEE-111">
          <mxGeometry width="100" height="100" relative="1" as="geometry">
            <mxPoint x="690" y="383.5" as="sourcePoint" />
            <mxPoint x="690" y="408.5" as="targetPoint" />
            <Array as="points" />
          </mxGeometry>
        </mxCell>
        <mxCell id="K-xb-uSYliZ07DOGXeEE-120" value="&lt;span style=&quot;color: rgb(0 , 0 , 0) ; font-family: &amp;#34;helvetica&amp;#34; ; font-size: 12px ; font-style: normal ; font-weight: 400 ; letter-spacing: normal ; text-align: center ; text-indent: 0px ; text-transform: none ; word-spacing: 0px ; background-color: rgb(255 , 255 , 255) ; display: inline ; float: none&quot;&gt;placeholder_key,&lt;br&gt;sentence_text&lt;/span&gt;" style="text;whiteSpace=wrap;html=1;fontSize=12;" vertex="1" parent="1">
          <mxGeometry x="450" y="380" width="105" height="30" as="geometry" />
        </mxCell>
        <mxCell id="K-xb-uSYliZ07DOGXeEE-123" value="Write File" style="rounded=1;whiteSpace=wrap;html=1;absoluteArcSize=1;arcSize=14;strokeWidth=2;fontSize=12;flipV=1;" vertex="1" parent="1">
          <mxGeometry x="750" y="359.5" width="110" height="48" as="geometry" />
        </mxCell>
        <mxCell id="K-xb-uSYliZ07DOGXeEE-124" value="" style="edgeStyle=orthogonalEdgeStyle;elbow=horizontal;strokeWidth=1;fontFamily=Varela Round;fontSource=https%3A%2F%2Ffonts.googleapis.com%2Fcss%3Ffamily%3DVarela%2BRound;strokeColor=#0000FF;entryX=0;entryY=0.5;entryDx=0;entryDy=0;" edge="1" parent="1" source="K-xb-uSYliZ07DOGXeEE-111" target="K-xb-uSYliZ07DOGXeEE-123">
          <mxGeometry width="100" height="100" relative="1" as="geometry">
            <mxPoint x="760" y="318.5" as="sourcePoint" />
            <mxPoint x="735" y="318.5" as="targetPoint" />
            <Array as="points" />
          </mxGeometry>
        </mxCell>
        <mxCell id="K-xb-uSYliZ07DOGXeEE-125" value="Make Kafka Message" style="rounded=1;whiteSpace=wrap;html=1;absoluteArcSize=1;arcSize=14;strokeWidth=2;fontSize=12;flipV=1;" vertex="1" parent="1">
          <mxGeometry x="615" y="434.5" width="110" height="48" as="geometry" />
        </mxCell>
        <mxCell id="K-xb-uSYliZ07DOGXeEE-126" value="" style="edgeStyle=elbowEdgeStyle;elbow=horizontal;strokeWidth=1;fontFamily=Varela Round;fontSource=https%3A%2F%2Ffonts.googleapis.com%2Fcss%3Ffamily%3DVarela%2BRound;strokeColor=#0000FF;" edge="1" parent="1" source="K-xb-uSYliZ07DOGXeEE-111" target="K-xb-uSYliZ07DOGXeEE-125">
          <mxGeometry width="100" height="100" relative="1" as="geometry">
            <mxPoint x="680" y="342.5" as="sourcePoint" />
            <mxPoint x="680" y="369.5" as="targetPoint" />
            <Array as="points" />
          </mxGeometry>
        </mxCell>
        <mxCell id="K-xb-uSYliZ07DOGXeEE-127" value="E" style="strokeWidth=2;html=1;shape=mxgraph.flowchart.start_2;whiteSpace=wrap;fontSize=12;fontStyle=1;fontFamily=Varela Round;fontSource=https%3A%2F%2Ffonts.googleapis.com%2Fcss%3Ffamily%3DVarela%2BRound;flipV=1;" vertex="1" parent="1">
          <mxGeometry x="785" y="438.5" width="40" height="40" as="geometry" />
        </mxCell>
        <mxCell id="K-xb-uSYliZ07DOGXeEE-128" value="" style="edgeStyle=orthogonalEdgeStyle;elbow=horizontal;strokeWidth=1;fontFamily=Varela Round;fontSource=https%3A%2F%2Ffonts.googleapis.com%2Fcss%3Ffamily%3DVarela%2BRound;strokeColor=#0000FF;" edge="1" parent="1" source="K-xb-uSYliZ07DOGXeEE-123" target="K-xb-uSYliZ07DOGXeEE-127">
          <mxGeometry width="100" height="100" relative="1" as="geometry">
            <mxPoint x="735" y="393.5" as="sourcePoint" />
            <mxPoint x="760" y="393.5" as="targetPoint" />
            <Array as="points" />
          </mxGeometry>
        </mxCell>
        <mxCell id="K-xb-uSYliZ07DOGXeEE-131" value="" style="edgeStyle=orthogonalEdgeStyle;elbow=horizontal;strokeWidth=1;fontFamily=Varela Round;fontSource=https%3A%2F%2Ffonts.googleapis.com%2Fcss%3Ffamily%3DVarela%2BRound;strokeColor=#0000FF;" edge="1" parent="1" source="K-xb-uSYliZ07DOGXeEE-125" target="K-xb-uSYliZ07DOGXeEE-127">
          <mxGeometry width="100" height="100" relative="1" as="geometry">
            <mxPoint x="815" y="417.5" as="sourcePoint" />
            <mxPoint x="815" y="448.5" as="targetPoint" />
            <Array as="points" />
          </mxGeometry>
        </mxCell>
        <mxCell id="K-xb-uSYliZ07DOGXeEE-134" value="&lt;div&gt;&lt;span&gt;&lt;font face=&quot;helvetica&quot;&gt;[DOC_FILE] include concatenated PlaceHolders&lt;/font&gt;&lt;/span&gt;&lt;/div&gt;" style="text;whiteSpace=wrap;html=1;fontSize=12;align=center;" vertex="1" parent="1">
          <mxGeometry x="530" y="660" width="280" height="30" as="geometry" />
        </mxCell>
        <mxCell id="K-xb-uSYliZ07DOGXeEE-137" value="NFS" style="rounded=0;whiteSpace=wrap;html=1;fontSize=12;align=center;fillColor=#fff2cc;strokeColor=#d6b656;verticalAlign=top;fontStyle=3" vertex="1" parent="1">
          <mxGeometry x="290" y="10" width="184.5" height="160" as="geometry" />
        </mxCell>
        <mxCell id="K-xb-uSYliZ07DOGXeEE-138" value="Original File" style="rounded=0;whiteSpace=wrap;html=1;fontSize=12;align=center;" vertex="1" parent="1">
          <mxGeometry x="311.13" y="40" width="142.25" height="50" as="geometry" />
        </mxCell>
        <mxCell id="K-xb-uSYliZ07DOGXeEE-139" value="File included&lt;br&gt;PlaceHolders" style="rounded=0;whiteSpace=wrap;html=1;fontSize=12;align=center;" vertex="1" parent="1">
          <mxGeometry x="311.13" y="101" width="142.25" height="50" as="geometry" />
        </mxCell>
        <mxCell id="K-xb-uSYliZ07DOGXeEE-135" value="" style="strokeWidth=1;fontFamily=Varela Round;fontSource=https%3A%2F%2Ffonts.googleapis.com%2Fcss%3Ffamily%3DVarela%2BRound;strokeColor=#0000FF;dashed=1;exitX=1;exitY=0.25;exitDx=0;exitDy=0;entryX=0;entryY=0.5;entryDx=0;entryDy=0;edgeStyle=elbowEdgeStyle;" edge="1" parent="1" source="2" target="K-xb-uSYliZ07DOGXeEE-138">
          <mxGeometry width="100" height="100" relative="1" as="geometry">
            <mxPoint x="870" y="358" as="sourcePoint" />
            <mxPoint x="322.5" y="70" as="targetPoint" />
            <Array as="points">
              <mxPoint x="180" y="180" />
            </Array>
          </mxGeometry>
        </mxCell>
        <mxCell id="K-xb-uSYliZ07DOGXeEE-133" value="" style="edgeStyle=orthogonalEdgeStyle;elbow=vertical;strokeWidth=1;fontFamily=Varela Round;fontSource=https%3A%2F%2Ffonts.googleapis.com%2Fcss%3Ffamily%3DVarela%2BRound;strokeColor=#0000FF;dashed=1;" edge="1" parent="1" source="K-xb-uSYliZ07DOGXeEE-123" target="K-xb-uSYliZ07DOGXeEE-139">
          <mxGeometry width="100" height="100" relative="1" as="geometry">
            <mxPoint x="897.5" y="610" as="sourcePoint" />
            <mxPoint x="422.5" y="70" as="targetPoint" />
            <Array as="points">
              <mxPoint x="940" y="384" />
              <mxPoint x="940" y="126" />
            </Array>
          </mxGeometry>
        </mxCell>
        <mxCell id="K-xb-uSYliZ07DOGXeEE-140" value="" style="elbow=vertical;strokeWidth=1;fontFamily=Varela Round;fontSource=https%3A%2F%2Ffonts.googleapis.com%2Fcss%3Ffamily%3DVarela%2BRound;strokeColor=#0000FF;dashed=1;exitX=1;exitY=0.5;exitDx=0;exitDy=0;" edge="1" parent="1" source="K-xb-uSYliZ07DOGXeEE-138" target="K-xb-uSYliZ07DOGXeEE-106">
          <mxGeometry width="100" height="100" relative="1" as="geometry">
            <mxPoint x="238" y="290" as="sourcePoint" />
            <mxPoint x="311.3800000000001" y="46" as="targetPoint" />
          </mxGeometry>
        </mxCell>
      </root>
    </mxGraphModel>
  </diagram>
</mxfile>
